<?xml version="1.0" standalone="no"?><!DOCTYPE svg PUBLIC "-//W3C//DTD SVG 1.1//EN" "http://www.w3.org/Graphics/SVG/1.1/DTD/svg11.dtd"><svg t="1632300989955" class="icon" viewBox="0 0 1024 1024" version="1.1" xmlns="http://www.w3.org/2000/svg" p-id="6009" xmlns:xlink="http://www.w3.org/1999/xlink" width="200" height="200"><defs><style type="text/css"></style></defs><path d="M608 192h-32V160H192v32H160v384h32v32h224v32H192v32H96v-96h32V192H96V96h96v32h384V96h96v96h-32v224h-32V192z m224 256v-32h96v96h-32v320h32v96h-96v-32H512v32h-96v-96h32V512h-32v-96h96v32h320z m0 32H512v32h-32v320h32v32h320v-32h32V512h-32v-32zM128 128v32h32V128H128z m0 480v32h32v-32H128z m320 256v32h32v-32h-32z m416 0v32h32v-32h-32z m0-416v32h32v-32h-32z m-416 0v32h32v-32h-32z m160-320v32h32V128h-32z" p-id="6010"></path></svg>